<svg id="a" xmlns="http://www.w3.org/2000/svg" xmlns:xlink="http://www.w3.org/1999/xlink" viewBox="0 0 135.9397 46.2147"><defs><linearGradient id="b" x1="10.6187" y1="59.3384" x2="24.5121" y2="6.2168" gradientTransform="translate(0 47.8784) scale(1 -1)" gradientUnits="userSpaceOnUse"><stop offset=".2041" stop-color="#6f6ab5"/><stop offset=".3406" stop-color="#5a7dc2"/><stop offset=".7886" stop-color="#19b7ee"/><stop offset="1" stop-color="#00cfff"/></linearGradient><linearGradient id="c" x1="3.4837" y1="57.4723" x2="17.3771" y2="4.3506" gradientTransform="translate(0 47.8784) scale(1 -1)" gradientUnits="userSpaceOnUse"><stop offset=".2041" stop-color="#6f6ab5"/><stop offset=".3406" stop-color="#5a7dc2"/><stop offset=".7886" stop-color="#19b7ee"/><stop offset="1" stop-color="#00cfff"/></linearGradient><linearGradient id="d" x1="-.7909" y1="56.3543" x2="13.1025" y2="3.2326" gradientTransform="translate(0 47.8784) scale(1 -1)" gradientUnits="userSpaceOnUse"><stop offset=".2041" stop-color="#6f6ab5"/><stop offset=".3406" stop-color="#5a7dc2"/><stop offset=".7886" stop-color="#19b7ee"/><stop offset="1" stop-color="#00cfff"/></linearGradient></defs><path d="M29.9476,28.1368h7.0158v3.1405h-11.1734v-2.6172l6.8741-10.8969h-6.7088v-3.1407h10.8664v2.5935l-6.8741,10.9208h0Z" fill="#3e4265"/><path d="M52.1995,14.6225l-5.6693,10.1595v6.4953h-3.2363v-6.4953l-5.6457-10.1595h3.685l3.5906,6.9474,3.5907-6.9474h3.685Z" fill="#3e4265"/><path d="M62.2625,31.2773l-.9921-2.9979h-6.5907l-.9921,2.9979h-3.5196l5.7873-16.6548h4.0395l5.8111,16.6548h-3.5434Zm-6.5433-6.0671h4.5355l-2.2678-6.8046-2.2677,6.8046h0Z" fill="#3e4265"/><path d="M76.9793,14.6225h3.2599V31.2773h-2.4803l-7.0867-10.1832v10.1832h-3.2598V14.6225h2.4803l7.0866,10.1595V14.6225Z" fill="#3e4265"/><path d="M94.247,14.6225v3.1407h-4.4646v13.5141h-3.2599v-13.5141h-4.441v-3.1407h12.1655Z" fill="#3e4265"/><path d="M96.0657,14.6225h3.2599V31.2773h-3.2599V14.6225Z" fill="#3e4265"/><path d="M112.2707,17.7632h-6.615v3.9495h6.426v3.1407h-6.426v6.4239h-3.259V14.6225h9.874v3.1407Z" fill="#3e4265"/><path d="M114.6567,14.6225h3.259V31.2773h-3.259V14.6225Z" fill="#3e4265"/><path d="M128.8297,31.6105c-2.489,0-4.544-.8328-6.166-2.4983-1.622-1.6655-2.433-3.7194-2.433-6.1622,0-2.4585,.811-4.5166,2.433-6.1742,1.622-1.6573,3.677-2.4863,6.166-2.4863,1.496,0,2.877,.3531,4.145,1.0587,1.268,.706,2.256,1.6618,2.965,2.8671l-2.811,1.6417c-.41-.7454-.992-1.3284-1.748-1.7488-.756-.4201-1.606-.6305-2.551-.6305-1.607,0-2.902,.5078-3.886,1.5227-.985,1.0153-1.477,2.3317-1.477,3.9496,0,1.6022,.492,2.9108,1.477,3.9258,.984,1.0152,2.279,1.5226,3.886,1.5226,.945,0,1.799-.2101,2.563-.6305,.763-.42,1.342-.9952,1.736-1.7249l2.811,1.6417c-.709,1.2055-1.693,2.1613-2.953,2.8669-1.26,.706-2.646,1.0589-4.157,1.0589h0Z" fill="#3e4265"/><path d="M15.211,.1686c.1933-.1124,.409-.1686,.6247-.1686s.4315,.0562,.6248,.1686l6.2153,3.6143c.3866,.2248,.6247,.6403,.6247,1.0898v7.2285c0,.4496-.2381,.8651-.6247,1.0899l-6.2154,3.6142c-.1933,.1125-.409,.1687-.6247,.1687s-.4315-.0562-.6248-.1687l-6.2153-3.6142c-.3866-.2248-.6247-.6403-.6247-1.0899V4.8727c0-.4496,.2381-.8651,.6247-1.0898L15.211,.1686Zm-.0757,12.0641c.2167,.1261,.4585,.1891,.7004,.1891s.4836-.063,.7003-.1891l2.1321-1.2398c.4334-.252,.7004-.7177,.7004-1.2218v-2.4797c0-.504-.267-.9697-.7003-1.2218l-2.1322-1.2398c-.2167-.126-.4585-.189-.7003-.189s-.4837,.063-.7003,.189l-2.1322,1.2399c-.4333,.252-.7003,.7177-.7003,1.2218v2.4797c0,.5041,.267,.9697,.7003,1.2218l2.1321,1.2398Z" fill="url(#b)" fill-rule="evenodd"/><path d="M15.2354,29.4092c.1933-.1124,.409-.1686,.6247-.1686s.4315,.0562,.6248,.1686l6.2153,3.6143c.3866,.2248,.6247,.6402,.6247,1.0898v7.2286c0,.4496-.2381,.8651-.6247,1.0898l-6.2154,3.6143c-.1933,.1124-.409,.1687-.6247,.1687s-.4315-.0563-.6248-.1687l-6.2153-3.6143c-.3866-.2247-.6248-.6402-.6248-1.0898v-7.2286c0-.4496,.2381-.865,.6248-1.0898l6.2154-3.6143Zm-.0757,12.0641c.2167,.126,.4586,.189,.7004,.189s.4836-.063,.7003-.189l2.1322-1.2398c.4333-.252,.7003-.7178,.7003-1.2218v-2.4797c0-.504-.267-.9697-.7003-1.2217l-2.1322-1.2399c-.2167-.126-.4585-.189-.7003-.189s-.4837,.063-.7003,.189l-2.1321,1.2399c-.4334,.252-.7004,.7177-.7004,1.2217v2.4797c0,.504,.267,.9698,.7003,1.2218l2.1321,1.2398Z" fill="url(#c)" fill-rule="evenodd"/><path d="M6.8401,14.7716c.1933-.1124,.409-.1686,.6247-.1686s.4315,.0562,.6248,.1686l6.2153,3.6143c.3866,.2248,.6248,.6402,.6248,1.0898v7.2286c0,.4496-.2382,.8651-.6248,1.0898l-6.2153,3.6143c-.1933,.1124-.409,.1687-.6248,.1687s-.4314-.0563-.6247-.1687L.6248,27.7941c-.3866-.2247-.6248-.6402-.6248-1.0898v-7.2286c0-.4496,.2381-.865,.6248-1.0898l6.2154-3.6143Zm-.0756,12.0641c.2167,.126,.4585,.189,.7003,.189s.4836-.063,.7003-.189l2.1321-1.2398c.4334-.252,.7003-.7178,.7003-1.2218v-2.4797c0-.504-.2669-.9697-.7003-1.2217l-2.1321-1.2398c-.2167-.1261-.4585-.1891-.7004-.1891s-.4836,.063-.7003,.189l-2.1321,1.2399c-.4334,.252-.7003,.7177-.7003,1.2217v2.4797c0,.504,.267,.9698,.7003,1.2218l2.1321,1.2398Z" fill="url(#d)" fill-rule="evenodd"/></svg>