<?xml version="1.0" encoding="UTF-8"?><svg id="a" xmlns="http://www.w3.org/2000/svg" xmlns:xlink="http://www.w3.org/1999/xlink" viewBox="0 0 52.1995 46.2147"><defs><linearGradient id="b" x1="10.6188" y1="2940.6616" x2="24.5122" y2="2993.7832" gradientTransform="translate(0 -2952.1216)" gradientUnits="userSpaceOnUse"><stop offset=".2041" stop-color="#6f6ab5"/><stop offset=".3406" stop-color="#5a7dc2"/><stop offset=".7886" stop-color="#19b7ee"/><stop offset="1" stop-color="#00cfff"/></linearGradient><linearGradient id="c" x1="3.4836" y1="2942.5277" x2="17.377" y2="2995.6494" gradientTransform="translate(0 -2952.1216)" gradientUnits="userSpaceOnUse"><stop offset=".2041" stop-color="#6f6ab5"/><stop offset=".3406" stop-color="#5a7dc2"/><stop offset=".7886" stop-color="#19b7ee"/><stop offset="1" stop-color="#00cfff"/></linearGradient><linearGradient id="d" x1="-.7909" y1="2943.6457" x2="13.1025" y2="2996.7674" gradientTransform="translate(0 -2952.1216)" gradientUnits="userSpaceOnUse"><stop offset=".2041" stop-color="#6f6ab5"/><stop offset=".3406" stop-color="#5a7dc2"/><stop offset=".7886" stop-color="#19b7ee"/><stop offset="1" stop-color="#00cfff"/></linearGradient></defs><path d="M29.9476,28.1368h7.0158v3.1405h-11.1734v-2.6172l6.8741-10.8969h-6.7088v-3.1407h10.8664v2.5935l-6.8741,10.9208h0Z" fill="#3e4265"/><path d="M52.1995,14.6225l-5.6693,10.1595v6.4953h-3.2363v-6.4953l-5.6457-10.1595h3.685l3.5906,6.9474,3.5907-6.9474h3.685Z" fill="#3e4265"/><path d="M15.211,.1686c.1933-.1124,.409-.1686,.6247-.1686s.4315,.0562,.6248,.1686l6.2153,3.6143c.3866,.2248,.6247,.6403,.6247,1.0898v7.2285c0,.4496-.2381,.8651-.6247,1.0899l-6.2154,3.6142c-.1933,.1125-.409,.1687-.6247,.1687s-.4315-.0562-.6248-.1687l-6.2153-3.6142c-.3866-.2248-.6247-.6403-.6247-1.0899V4.8727c0-.4496,.2381-.8651,.6247-1.0898L15.211,.1686Zm-.0757,12.0641c.2167,.1261,.4585,.1891,.7004,.1891s.4836-.063,.7003-.1891l2.1321-1.2398c.4334-.252,.7004-.7177,.7004-1.2218v-2.4797c0-.504-.267-.9697-.7003-1.2218l-2.1322-1.2398c-.2167-.126-.4585-.189-.7003-.189s-.4837,.063-.7003,.189l-2.1322,1.2399c-.4333,.252-.7003,.7177-.7003,1.2218v2.4797c0,.5041,.267,.9697,.7003,1.2218l2.1321,1.2398h0Z" fill="url(#b)" fill-rule="evenodd"/><path d="M15.2354,29.4092c.1933-.1124,.409-.1686,.6247-.1686s.4315,.0562,.6248,.1686l6.2153,3.6143c.3866,.2248,.6247,.6402,.6247,1.0898v7.2286c0,.4496-.2381,.8651-.6247,1.0898l-6.2154,3.6143c-.1933,.1124-.409,.1687-.6247,.1687s-.4315-.0563-.6248-.1687l-6.2153-3.6143c-.3866-.2247-.6248-.6402-.6248-1.0898v-7.2286c0-.4496,.2381-.865,.6248-1.0898l6.2154-3.6143Zm-.0757,12.0641c.2167,.126,.4586,.189,.7004,.189s.4836-.063,.7003-.189l2.1322-1.2398c.4333-.252,.7003-.7178,.7003-1.2218v-2.4797c0-.504-.267-.9697-.7003-1.2217l-2.1322-1.2399c-.2167-.126-.4585-.189-.7003-.189s-.4837,.063-.7003,.189l-2.1321,1.2399c-.4334,.252-.7004,.7177-.7004,1.2217v2.4797c0,.504,.267,.9698,.7003,1.2218l2.1321,1.2398Z" fill="url(#c)" fill-rule="evenodd"/><path d="M6.8401,14.7716c.1933-.1124,.409-.1686,.6247-.1686s.4315,.0562,.6248,.1686l6.2153,3.6143c.3866,.2248,.6248,.6402,.6248,1.0898v7.2286c0,.4496-.2382,.8651-.6248,1.0898l-6.2153,3.6143c-.1933,.1124-.409,.1687-.6248,.1687s-.4314-.0563-.6247-.1687L.6248,27.7941c-.3866-.2247-.6248-.6402-.6248-1.0898v-7.2286c0-.4496,.2381-.865,.6248-1.0898l6.2154-3.6143h-.0001Zm-.0756,12.0641c.2167,.126,.4585,.189,.7003,.189s.4836-.063,.7003-.189l2.1321-1.2398c.4334-.252,.7003-.7178,.7003-1.2218v-2.4797c0-.504-.2669-.9697-.7003-1.2217l-2.1321-1.2398c-.2167-.1261-.4585-.1891-.7004-.1891s-.4836,.063-.7003,.189l-2.1321,1.2399c-.4334,.252-.7003,.7177-.7003,1.2217v2.4797c0,.504,.267,.9698,.7003,1.2218l2.1321,1.2398h0Z" fill="url(#d)" fill-rule="evenodd"/></svg>