<svg id="a" xmlns="http://www.w3.org/2000/svg" viewBox="0 0 135.9399 46.2146"><path d="M29.9475,28.1367h7.0158v3.1406h-11.1733v-2.6172l6.8741-10.8969h-6.7088v-3.1407h10.8663v2.5935l-6.8741,10.9207h0Z" fill="#3e4265"/><path d="M52.1994,14.6225l-5.6693,10.1595v6.4953h-3.2363v-6.4953l-5.6457-10.1595h3.685l3.5907,6.9474,3.5906-6.9474h3.685Z" fill="#3e4265"/><path d="M62.2625,31.2773l-.9922-2.9979h-6.5906l-.9922,2.9979h-3.5196l5.7874-16.6548h4.0394l5.8111,16.6548h-3.5433Zm-6.5434-6.0671h4.5355l-2.2677-6.8046-2.2678,6.8046h0Z" fill="#3e4265"/><path d="M76.9793,14.6225h3.2599V31.2773h-2.4803l-7.0867-10.1832v10.1832h-3.2599V14.6225h2.4803l7.0867,10.1595V14.6225Z" fill="#3e4265"/><path d="M94.247,14.6225v3.1407h-4.4646v13.5141h-3.2599v-13.5141h-4.441v-3.1407h12.1655Z" fill="#3e4265"/><path d="M96.0657,14.6225h3.2599V31.2773h-3.2599V14.6225Z" fill="#3e4265"/><path d="M112.2709,17.7632h-6.615v3.9495h6.426v3.1407h-6.426v6.4239h-3.26V14.6225h9.875v3.1407Z" fill="#3e4265"/><path d="M114.6558,14.6225h3.26V31.2773h-3.26V14.6225Z" fill="#3e4265"/><path d="M128.8288,31.6104c-2.488,0-4.543-.8327-6.165-2.4982s-2.433-3.7194-2.433-6.1622c0-2.4585,.811-4.5166,2.433-6.1742,1.622-1.6574,3.677-2.4863,6.165-2.4863,1.496,0,2.878,.3531,4.146,1.0587,1.268,.706,2.256,1.6618,2.965,2.8671l-2.811,1.6417c-.41-.7454-.992-1.3284-1.748-1.7488-.756-.4201-1.607-.6305-2.552-.6305-1.606,0-2.901,.5078-3.885,1.5227-.985,1.0153-1.477,2.3317-1.477,3.9496,0,1.6022,.492,2.9108,1.477,3.9257,.984,1.0152,2.279,1.5227,3.885,1.5227,.945,0,1.799-.2101,2.564-.6305,.763-.42,1.342-.9952,1.736-1.7249l2.811,1.6417c-.709,1.2055-1.693,2.1613-2.953,2.8669-1.26,.706-2.646,1.0588-4.158,1.0588h0Z" fill="#3e4265"/><path d="M15.2109,.1686c.1933-.1124,.409-.1686,.6248-.1686s.4314,.0562,.6247,.1686l6.2153,3.6143c.3866,.2248,.6248,.6403,.6248,1.0898v7.2286c0,.4496-.2382,.8651-.6248,1.0899l-6.2153,3.6142c-.1933,.1125-.4091,.1687-.6248,.1687s-.4314-.0562-.6247-.1687l-6.2154-3.6142c-.3866-.2248-.6248-.6403-.6248-1.0899V4.8727c0-.4496,.2381-.8651,.6248-1.0898L15.2109,.1686Zm-.0756,12.0641c.2167,.126,.4585,.189,.7003,.189s.4837-.063,.7004-.189l2.1321-1.2398c.4334-.252,.7003-.7177,.7003-1.2218v-2.4797c0-.504-.2669-.9697-.7003-1.2218l-2.1321-1.2398c-.2167-.126-.4585-.189-.7004-.189-.2418,0-.4836,.063-.7003,.189l-2.1321,1.2399c-.4334,.252-.7003,.7177-.7003,1.2218v2.4797c0,.5041,.2669,.9698,.7003,1.2218l2.1321,1.2398Z" fill="#3e4265" fill-rule="evenodd"/><path d="M15.2353,29.4092c.1933-.1124,.4091-.1686,.6248-.1686s.4314,.0562,.6247,.1686l6.2153,3.6143c.3867,.2247,.6248,.6402,.6248,1.0898v7.2285c0,.4497-.2381,.8651-.6248,1.0899l-6.2153,3.6143c-.1933,.1124-.409,.1686-.6248,.1686s-.4314-.0562-.6247-.1686l-6.2153-3.6143c-.3866-.2248-.6248-.6402-.6248-1.0899v-7.2285c0-.4496,.2381-.8651,.6248-1.0898l6.2153-3.6143Zm-.0756,12.0641c.2167,.126,.4585,.189,.7003,.189s.4837-.063,.7004-.189l2.1321-1.2398c.4334-.252,.7003-.7178,.7003-1.2218v-2.4797c0-.504-.2669-.9697-.7003-1.2217l-2.1321-1.2399c-.2167-.126-.4585-.189-.7004-.189-.2417,0-.4836,.063-.7003,.189l-2.1321,1.2399c-.4334,.252-.7003,.7177-.7003,1.2217v2.4797c0,.504,.2669,.9698,.7003,1.2218l2.1321,1.2398Z" fill="#3e4265" fill-rule="evenodd"/><path d="M6.8401,14.7716c.1933-.1125,.409-.1687,.6248-.1687s.4314,.0562,.6248,.1687l6.2153,3.6142c.3866,.2248,.6247,.6403,.6247,1.0899v7.2285c0,.4497-.2381,.8651-.6247,1.0899l-6.2154,3.6143c-.1933,.1124-.409,.1686-.6248,.1686s-.4314-.0562-.6247-.1686L.6248,27.7941c-.3866-.2248-.6248-.6402-.6248-1.0899v-7.2285c0-.4496,.2381-.8651,.6248-1.0899l6.2154-3.6142Zm-.0756,12.0641c.2167,.126,.4585,.189,.7003,.189s.4837-.063,.7003-.189l2.1322-1.2399c.4333-.252,.7003-.7177,.7003-1.2217v-2.4797c0-.504-.267-.9697-.7003-1.2218l-2.1322-1.2398c-.2167-.126-.4585-.189-.7004-.189s-.4836,.063-.7003,.189l-2.1321,1.2398c-.4334,.2521-.7003,.7178-.7003,1.2218v2.4797c0,.504,.267,.9697,.7003,1.2217l2.1321,1.2399Z" fill="#3e4265" fill-rule="evenodd"/></svg>