<svg width="121" height="213" viewBox="0 0 121 213" fill="none" xmlns="http://www.w3.org/2000/svg">
<path d="M117.65 9.02863C119.344 11.9645 120.236 15.2937 120.238 18.683L120.239 135.224C120.233 138.613 119.338 141.941 117.644 144.876C115.95 147.81 113.515 150.249 110.583 151.948L9.65529 210.219C6.7179 211.908 3.38858 212.797 -9.14783e-05 212.798C-3.38876 212.798 -6.71814 211.909 -9.65563 210.219L-110.584 151.947C-113.519 150.252 -115.956 147.814 -117.651 144.879C-119.346 141.943 -120.238 138.614 -120.239 135.224L-120.239 18.6828C-120.234 15.2942 -119.339 11.9664 -117.644 9.03187C-115.95 6.09735 -113.515 3.65893 -110.583 1.96026L-9.65517 -56.3103C-6.71802 -58.0003 -3.3888 -58.8898 -0.000167079 -58.8901C3.38846 -58.8903 6.71781 -58.0012 9.65521 -56.3117L110.583 1.96016C113.518 3.65665 115.955 6.09416 117.65 9.02863ZM-54.5524 108.451C-52.4689 112.057 -49.4739 115.051 -45.8679 117.134L-11.2451 137.122C-7.63603 139.198 -3.54549 140.291 0.617951 140.291C4.78139 140.291 8.87197 139.198 12.4811 137.123L47.1029 117.134C50.7053 115.047 53.6968 112.05 55.7786 108.445C57.8603 104.839 58.9594 100.75 58.9661 96.587L58.9646 56.6086C58.9666 52.4435 57.8712 48.3515 55.7887 44.7445C53.7062 41.1375 50.7101 38.1429 47.1021 36.0621L12.4805 16.0716C8.87157 13.9953 4.78096 12.9025 0.617421 12.9024C-3.54611 12.9024 -7.63676 13.995 -11.2457 16.0711L-45.8675 36.06C-49.4697 38.1478 -52.461 41.1442 -54.5426 44.7498C-56.6243 48.3555 -57.7234 52.4443 -57.7302 56.6077L-57.7292 96.5853C-57.7297 100.751 -56.634 104.843 -54.5523 108.451L-54.5524 108.451Z" fill="url(#paint0_linear_375_335)"/>
<defs>
<linearGradient id="paint0_linear_375_335" x1="-117.65" y1="144.88" x2="117.65" y2="9.02864" gradientUnits="userSpaceOnUse">
<stop stop-color="#5E64B1"/>
<stop offset="1" stop-color="#00C9FF"/>
</linearGradient>
</defs>
</svg>
