<svg width="132" height="264" viewBox="0 0 132 264" fill="none" xmlns="http://www.w3.org/2000/svg">
<path d="M228.061 228.061C225.664 230.457 222.679 232.18 219.406 233.06L106.835 263.223C103.561 264.095 100.114 264.092 96.8413 263.215C93.5681 262.338 90.5824 260.617 88.1824 258.225L5.77541 175.818C3.38311 173.418 1.66244 170.432 0.785292 167.159C-0.0918597 163.886 -0.0947883 160.44 0.776798 157.165L30.9409 44.5938C31.8189 41.32 33.5428 38.3349 35.9395 35.9382C38.3362 33.5415 41.3213 31.8176 44.5951 30.9396L157.166 0.77616C160.44 -0.0955485 163.886 -0.0926157 167.159 0.784663C170.432 1.66194 173.418 3.38285 175.818 5.77541L258.225 88.1824C260.617 90.5821 262.338 93.5677 263.215 96.8408C264.093 100.114 264.096 103.56 263.224 106.834L233.06 219.406C232.18 222.679 230.457 225.664 228.061 228.061ZM87.4571 87.4584C84.5136 90.4042 82.3965 94.072 81.318 98.0942L70.9715 136.711C69.9005 140.734 69.9039 144.968 70.9814 148.99C72.0589 153.011 74.1728 156.68 77.1118 159.629L105.38 187.897C108.329 190.837 111.997 192.951 116.019 194.028C120.04 195.106 124.274 195.109 128.298 194.038L166.913 183.69C170.937 182.614 174.606 180.496 177.551 177.551C180.496 174.606 182.614 170.937 183.69 166.913L194.038 128.298C195.11 124.274 195.106 120.04 194.029 116.019C192.951 111.997 190.837 108.328 187.898 105.38L159.629 77.1112C156.68 74.1721 153.012 72.0583 148.99 70.9808C144.969 69.9033 140.735 69.8998 136.711 70.9708L98.0963 81.3188C94.0726 82.3964 90.4034 84.5139 87.4571 87.4585L87.4571 87.4584Z" fill="url(#paint0_linear_375_334)"/>
<defs>
<linearGradient id="paint0_linear_375_334" x1="35.9388" y1="35.9389" x2="228.061" y2="228.061" gradientUnits="userSpaceOnUse">
<stop stop-color="#5E64B1"/>
<stop offset="1" stop-color="#00C9FF"/>
</linearGradient>
</defs>
</svg>
